<mxfile host="app.diagrams.net" modified="2023-05-18T13:45:53.575Z" agent="Mozilla/5.0 (Windows NT 10.0; Win64; x64) AppleWebKit/537.36 (KHTML, like Gecko) Chrome/112.0.0.0 Safari/537.36 OPR/98.0.0.0" etag="-P1WnSapIy4KW4PWsZkY" version="21.2.9" type="device">
  <diagram id="R2lEEEUBdFMjLlhIrx00" name="Page-1">
    <mxGraphModel dx="1546" dy="689" grid="1" gridSize="10" guides="1" tooltips="1" connect="1" arrows="1" fold="1" page="1" pageScale="1" pageWidth="850" pageHeight="1100" math="0" shadow="0" extFonts="Permanent Marker^https://fonts.googleapis.com/css?family=Permanent+Marker">
      <root>
        <mxCell id="0" />
        <mxCell id="1" parent="0" />
        <mxCell id="obafi1UPasWX9JM71mCs-112" value="id" style="ellipse;whiteSpace=wrap;html=1;align=center;" parent="1" vertex="1">
          <mxGeometry x="290" y="595" width="70" height="37.59" as="geometry" />
        </mxCell>
        <mxCell id="obafi1UPasWX9JM71mCs-51" value="nombre" style="ellipse;whiteSpace=wrap;html=1;align=center;" parent="1" vertex="1">
          <mxGeometry x="2250" y="560" width="60" height="30" as="geometry" />
        </mxCell>
        <mxCell id="obafi1UPasWX9JM71mCs-52" value="dni" style="ellipse;whiteSpace=wrap;html=1;align=center;" parent="1" vertex="1">
          <mxGeometry x="2290" y="610" width="60" height="30" as="geometry" />
        </mxCell>
        <mxCell id="obafi1UPasWX9JM71mCs-53" value="edad" style="ellipse;whiteSpace=wrap;html=1;align=center;" parent="1" vertex="1">
          <mxGeometry x="2290" y="670" width="60" height="30" as="geometry" />
        </mxCell>
        <mxCell id="obafi1UPasWX9JM71mCs-54" value="fecha nacimiento" style="ellipse;whiteSpace=wrap;html=1;align=center;" parent="1" vertex="1">
          <mxGeometry x="2250" y="710" width="70" height="40" as="geometry" />
        </mxCell>
        <mxCell id="obafi1UPasWX9JM71mCs-3" value="Videojuego" style="rounded=1;arcSize=10;whiteSpace=wrap;html=1;align=center;" parent="1" vertex="1">
          <mxGeometry x="1027.235294117647" y="624.9999999999998" width="144.7058823529412" height="55.86206896551724" as="geometry" />
        </mxCell>
        <mxCell id="obafi1UPasWX9JM71mCs-264" style="edgeStyle=orthogonalEdgeStyle;rounded=0;orthogonalLoop=1;jettySize=auto;html=1;exitX=0;exitY=0.5;exitDx=0;exitDy=0;" parent="1" source="obafi1UPasWX9JM71mCs-4" edge="1">
          <mxGeometry relative="1" as="geometry">
            <mxPoint x="1027" y="262.1428571428571" as="targetPoint" />
          </mxGeometry>
        </mxCell>
        <mxCell id="obafi1UPasWX9JM71mCs-4" value="Empresa" style="rounded=1;arcSize=10;whiteSpace=wrap;html=1;align=center;" parent="1" vertex="1">
          <mxGeometry x="1027.235294117647" y="233.9655172413793" width="144.7058823529412" height="55.86206896551724" as="geometry" />
        </mxCell>
        <mxCell id="obafi1UPasWX9JM71mCs-5" value="Consola" style="whiteSpace=wrap;html=1;align=center;" parent="1" vertex="1">
          <mxGeometry x="1468.5882352941176" y="233.9655172413793" width="144.7058823529412" height="55.86206896551724" as="geometry" />
        </mxCell>
        <mxCell id="obafi1UPasWX9JM71mCs-13" value="Vende" style="shape=rhombus;perimeter=rhombusPerimeter;whiteSpace=wrap;html=1;align=center;" parent="1" vertex="1">
          <mxGeometry x="1461.3529411764705" y="415.5172413793103" width="159.17647058823528" height="83.79310344827584" as="geometry" />
        </mxCell>
        <mxCell id="obafi1UPasWX9JM71mCs-14" value="" style="endArrow=none;html=1;rounded=0;exitX=0.5;exitY=1;exitDx=0;exitDy=0;entryX=0;entryY=0.5;entryDx=0;entryDy=0;" parent="1" source="obafi1UPasWX9JM71mCs-13" edge="1">
          <mxGeometry width="50" height="50" relative="1" as="geometry">
            <mxPoint x="1367.2941176470588" y="624.9999999999998" as="sourcePoint" />
            <mxPoint x="1540.9411764705883" y="624.9999999999998" as="targetPoint" />
            <Array as="points" />
          </mxGeometry>
        </mxCell>
        <mxCell id="obafi1UPasWX9JM71mCs-15" value="" style="endArrow=none;html=1;rounded=0;exitX=0.5;exitY=1;exitDx=0;exitDy=0;entryX=0;entryY=0.5;entryDx=0;entryDy=0;" parent="1" edge="1">
          <mxGeometry width="50" height="50" relative="1" as="geometry">
            <mxPoint x="1540.449176470588" y="289.8275862068965" as="sourcePoint" />
            <mxPoint x="1540.449176470588" y="415.5172413793103" as="targetPoint" />
            <Array as="points" />
          </mxGeometry>
        </mxCell>
        <mxCell id="obafi1UPasWX9JM71mCs-17" value="Pertenece a" style="shape=rhombus;perimeter=rhombusPerimeter;whiteSpace=wrap;html=1;align=center;" parent="1" vertex="1">
          <mxGeometry x="1020" y="401.551724137931" width="159.17647058823528" height="83.79310344827584" as="geometry" />
        </mxCell>
        <mxCell id="obafi1UPasWX9JM71mCs-18" value="" style="endArrow=none;html=1;rounded=0;exitX=0.5;exitY=1;exitDx=0;exitDy=0;entryX=0.5;entryY=0;entryDx=0;entryDy=0;" parent="1" target="obafi1UPasWX9JM71mCs-3" edge="1">
          <mxGeometry width="50" height="50" relative="1" as="geometry">
            <mxPoint x="1099.0962352941176" y="485.3448275862068" as="sourcePoint" />
            <mxPoint x="1099.0962352941176" y="611.0344827586206" as="targetPoint" />
            <Array as="points" />
          </mxGeometry>
        </mxCell>
        <mxCell id="obafi1UPasWX9JM71mCs-19" value="" style="endArrow=none;html=1;rounded=0;exitX=0.5;exitY=1;exitDx=0;exitDy=0;" parent="1" edge="1">
          <mxGeometry width="50" height="50" relative="1" as="geometry">
            <mxPoint x="1099.0962352941176" y="289.8275862068965" as="sourcePoint" />
            <mxPoint x="1099.5882352941176" y="401.551724137931" as="targetPoint" />
            <Array as="points" />
          </mxGeometry>
        </mxCell>
        <mxCell id="obafi1UPasWX9JM71mCs-20" value="Pertenece a" style="shape=rhombus;perimeter=rhombusPerimeter;whiteSpace=wrap;html=1;align=center;" parent="1" vertex="1">
          <mxGeometry x="1237.0588235294117" y="220" width="159.17647058823528" height="83.79310344827584" as="geometry" />
        </mxCell>
        <mxCell id="obafi1UPasWX9JM71mCs-21" value="" style="endArrow=none;html=1;rounded=0;exitX=0.5;exitY=1;exitDx=0;exitDy=0;entryX=0;entryY=0.5;entryDx=0;entryDy=0;" parent="1" target="obafi1UPasWX9JM71mCs-20" edge="1">
          <mxGeometry width="50" height="50" relative="1" as="geometry">
            <mxPoint x="1171.9411764705883" y="261.8965517241379" as="sourcePoint" />
            <mxPoint x="1172.4331764705883" y="373.6206896551724" as="targetPoint" />
            <Array as="points" />
          </mxGeometry>
        </mxCell>
        <mxCell id="obafi1UPasWX9JM71mCs-22" value="" style="endArrow=none;html=1;rounded=0;exitX=0.5;exitY=1;exitDx=0;exitDy=0;entryX=0;entryY=0.5;entryDx=0;entryDy=0;" parent="1" target="obafi1UPasWX9JM71mCs-5" edge="1">
          <mxGeometry width="50" height="50" relative="1" as="geometry">
            <mxPoint x="1396.235294117647" y="261.42172413793105" as="sourcePoint" />
            <mxPoint x="1461.3529411764705" y="261.42172413793105" as="targetPoint" />
            <Array as="points" />
          </mxGeometry>
        </mxCell>
        <mxCell id="obafi1UPasWX9JM71mCs-23" value="" style="endArrow=none;html=1;rounded=0;" parent="1" target="obafi1UPasWX9JM71mCs-24" edge="1">
          <mxGeometry width="50" height="50" relative="1" as="geometry">
            <mxPoint x="1171.9411764705883" y="624.9999999999998" as="sourcePoint" />
            <mxPoint x="1309.4117647058824" y="471.37931034482756" as="targetPoint" />
          </mxGeometry>
        </mxCell>
        <mxCell id="obafi1UPasWX9JM71mCs-24" value="EstÃ¡ en" style="shape=rhombus;perimeter=rhombusPerimeter;whiteSpace=wrap;html=1;align=center;" parent="1" vertex="1">
          <mxGeometry x="1237.0588235294117" y="401.551724137931" width="159.17647058823528" height="83.79310344827584" as="geometry" />
        </mxCell>
        <mxCell id="obafi1UPasWX9JM71mCs-25" value="" style="endArrow=none;html=1;rounded=0;exitX=0.681;exitY=0.18;exitDx=0;exitDy=0;exitPerimeter=0;" parent="1" source="obafi1UPasWX9JM71mCs-24" edge="1">
          <mxGeometry width="50" height="50" relative="1" as="geometry">
            <mxPoint x="1331.1176470588234" y="443.44827586206895" as="sourcePoint" />
            <mxPoint x="1468.5882352941176" y="289.8275862068965" as="targetPoint" />
          </mxGeometry>
        </mxCell>
        <mxCell id="obafi1UPasWX9JM71mCs-26" value="Vende" style="shape=rhombus;perimeter=rhombusPerimeter;whiteSpace=wrap;html=1;align=center;" parent="1" vertex="1">
          <mxGeometry x="1237.0588235294117" y="611.0344827586206" width="159.17647058823528" height="83.79310344827584" as="geometry" />
        </mxCell>
        <mxCell id="obafi1UPasWX9JM71mCs-27" value="" style="endArrow=none;html=1;rounded=0;exitX=1;exitY=0.5;exitDx=0;exitDy=0;entryX=0;entryY=0.5;entryDx=0;entryDy=0;" parent="1" source="obafi1UPasWX9JM71mCs-26" target="obafi1UPasWX9JM71mCs-1" edge="1">
          <mxGeometry width="50" height="50" relative="1" as="geometry">
            <mxPoint x="1454.1176470588234" y="555.1724137931034" as="sourcePoint" />
            <mxPoint x="1454.1176470588234" y="680.8620689655172" as="targetPoint" />
            <Array as="points" />
          </mxGeometry>
        </mxCell>
        <mxCell id="obafi1UPasWX9JM71mCs-28" value="" style="endArrow=none;html=1;rounded=0;exitX=1;exitY=0.5;exitDx=0;exitDy=0;entryX=0;entryY=0.5;entryDx=0;entryDy=0;" parent="1" edge="1">
          <mxGeometry width="50" height="50" relative="1" as="geometry">
            <mxPoint x="1171.9411764705883" y="652.4562068965517" as="sourcePoint" />
            <mxPoint x="1244.2941176470588" y="652.4562068965517" as="targetPoint" />
            <Array as="points" />
          </mxGeometry>
        </mxCell>
        <mxCell id="obafi1UPasWX9JM71mCs-29" value="Tiene" style="shape=rhombus;perimeter=rhombusPerimeter;whiteSpace=wrap;html=1;align=center;" parent="1" vertex="1">
          <mxGeometry x="1020" y="792.5862068965516" width="159.17647058823528" height="83.79310344827584" as="geometry" />
        </mxCell>
        <mxCell id="obafi1UPasWX9JM71mCs-31" value="" style="endArrow=none;html=1;rounded=0;exitX=0.5;exitY=1;exitDx=0;exitDy=0;entryX=0.5;entryY=0;entryDx=0;entryDy=0;" parent="1" source="obafi1UPasWX9JM71mCs-29" target="obafi1UPasWX9JM71mCs-119" edge="1">
          <mxGeometry width="50" height="50" relative="1" as="geometry">
            <mxPoint x="1099.0962352941176" y="834.4827586206895" as="sourcePoint" />
            <mxPoint x="1099.5882352941176" y="974.1379310344826" as="targetPoint" />
            <Array as="points" />
          </mxGeometry>
        </mxCell>
        <mxCell id="obafi1UPasWX9JM71mCs-32" value="" style="endArrow=none;html=1;rounded=0;entryX=0.5;entryY=0;entryDx=0;entryDy=0;" parent="1" target="obafi1UPasWX9JM71mCs-29" edge="1">
          <mxGeometry width="50" height="50" relative="1" as="geometry">
            <mxPoint x="1099.5882352941176" y="680.8620689655172" as="sourcePoint" />
            <mxPoint x="1099.5882352941176" y="764.655172413793" as="targetPoint" />
            <Array as="points" />
          </mxGeometry>
        </mxCell>
        <mxCell id="obafi1UPasWX9JM71mCs-34" value="0,n" style="text;html=1;strokeColor=none;fillColor=none;align=center;verticalAlign=middle;whiteSpace=wrap;rounded=0;" parent="1" vertex="1">
          <mxGeometry x="1420" y="625" width="60" height="30" as="geometry" />
        </mxCell>
        <mxCell id="obafi1UPasWX9JM71mCs-35" value="0,n" style="text;html=1;strokeColor=none;fillColor=none;align=center;verticalAlign=middle;whiteSpace=wrap;rounded=0;" parent="1" vertex="1">
          <mxGeometry x="1160" y="630" width="60" height="25" as="geometry" />
        </mxCell>
        <mxCell id="obafi1UPasWX9JM71mCs-36" value="0,n" style="text;html=1;strokeColor=none;fillColor=none;align=center;verticalAlign=middle;whiteSpace=wrap;rounded=0;" parent="1" vertex="1">
          <mxGeometry x="1420" y="280" width="60" height="30" as="geometry" />
        </mxCell>
        <mxCell id="obafi1UPasWX9JM71mCs-37" value="0,n" style="text;html=1;strokeColor=none;fillColor=none;align=center;verticalAlign=middle;whiteSpace=wrap;rounded=0;" parent="1" vertex="1">
          <mxGeometry x="1130" y="595" width="60" height="30" as="geometry" />
        </mxCell>
        <mxCell id="obafi1UPasWX9JM71mCs-38" value="0,1" style="text;html=1;strokeColor=none;fillColor=none;align=center;verticalAlign=middle;whiteSpace=wrap;rounded=0;" parent="1" vertex="1">
          <mxGeometry x="1420" y="233.97000000000003" width="60" height="30" as="geometry" />
        </mxCell>
        <mxCell id="obafi1UPasWX9JM71mCs-39" value="1,1" style="text;html=1;strokeColor=none;fillColor=none;align=center;verticalAlign=middle;whiteSpace=wrap;rounded=0;" parent="1" vertex="1">
          <mxGeometry x="1160" y="233.97000000000003" width="60" height="30" as="geometry" />
        </mxCell>
        <mxCell id="obafi1UPasWX9JM71mCs-41" value="0,n" style="text;html=1;strokeColor=none;fillColor=none;align=center;verticalAlign=middle;whiteSpace=wrap;rounded=0;" parent="1" vertex="1">
          <mxGeometry x="1520" y="289.83" width="60" height="30" as="geometry" />
        </mxCell>
        <mxCell id="obafi1UPasWX9JM71mCs-42" value="0,n" style="text;html=1;strokeColor=none;fillColor=none;align=center;verticalAlign=middle;whiteSpace=wrap;rounded=0;" parent="1" vertex="1">
          <mxGeometry x="1080" y="680" width="60" height="30" as="geometry" />
        </mxCell>
        <mxCell id="obafi1UPasWX9JM71mCs-43" value="0,n" style="text;html=1;strokeColor=none;fillColor=none;align=center;verticalAlign=middle;whiteSpace=wrap;rounded=0;" parent="1" vertex="1">
          <mxGeometry x="1090" y="970" width="60" height="30" as="geometry" />
        </mxCell>
        <mxCell id="obafi1UPasWX9JM71mCs-48" value="id" style="ellipse;whiteSpace=wrap;html=1;align=center;" parent="1" vertex="1">
          <mxGeometry x="2090" y="540" width="60" height="30" as="geometry" />
        </mxCell>
        <mxCell id="obafi1UPasWX9JM71mCs-49" value="ventas" style="ellipse;whiteSpace=wrap;html=1;align=center;" parent="1" vertex="1">
          <mxGeometry x="2180" y="540" width="60" height="30" as="geometry" />
        </mxCell>
        <mxCell id="obafi1UPasWX9JM71mCs-55" value="fecha de empiezo" style="ellipse;whiteSpace=wrap;html=1;align=center;" parent="1" vertex="1">
          <mxGeometry x="2000" y="550" width="70" height="40" as="geometry" />
        </mxCell>
        <mxCell id="obafi1UPasWX9JM71mCs-58" value="id" style="ellipse;whiteSpace=wrap;html=1;align=center;" parent="1" vertex="1">
          <mxGeometry x="1480" y="140" width="70" height="37.59" as="geometry" />
        </mxCell>
        <mxCell id="obafi1UPasWX9JM71mCs-59" value="nombre" style="ellipse;whiteSpace=wrap;html=1;align=center;" parent="1" vertex="1">
          <mxGeometry x="1570" y="140" width="70" height="37.59" as="geometry" />
        </mxCell>
        <mxCell id="obafi1UPasWX9JM71mCs-60" value="stock" style="ellipse;whiteSpace=wrap;html=1;align=center;" parent="1" vertex="1">
          <mxGeometry x="1650" y="170" width="70" height="41.38" as="geometry" />
        </mxCell>
        <mxCell id="obafi1UPasWX9JM71mCs-61" value="fecha salida" style="ellipse;whiteSpace=wrap;html=1;align=center;" parent="1" vertex="1">
          <mxGeometry x="1660" y="243.1" width="70" height="37.59" as="geometry" />
        </mxCell>
        <mxCell id="obafi1UPasWX9JM71mCs-62" value="id" style="ellipse;whiteSpace=wrap;html=1;align=center;" parent="1" vertex="1">
          <mxGeometry x="957.24" y="132.41" width="70" height="37.59" as="geometry" />
        </mxCell>
        <mxCell id="obafi1UPasWX9JM71mCs-63" value="nombre" style="ellipse;whiteSpace=wrap;html=1;align=center;" parent="1" vertex="1">
          <mxGeometry x="1050" y="120" width="70" height="37.59" as="geometry" />
        </mxCell>
        <mxCell id="obafi1UPasWX9JM71mCs-64" value="dueÃ±o" style="ellipse;whiteSpace=wrap;html=1;align=center;" parent="1" vertex="1">
          <mxGeometry x="1140" y="140" width="70" height="37.59" as="geometry" />
        </mxCell>
        <mxCell id="obafi1UPasWX9JM71mCs-66" value="fecha creacion" style="ellipse;whiteSpace=wrap;html=1;align=center;" parent="1" vertex="1">
          <mxGeometry x="920" y="196.38" width="70" height="37.59" as="geometry" />
        </mxCell>
        <mxCell id="obafi1UPasWX9JM71mCs-67" value="localizacion" style="ellipse;whiteSpace=wrap;html=1;align=center;" parent="1" vertex="1">
          <mxGeometry x="1600" y="710.0000000000001" width="70" height="37.59" as="geometry" />
        </mxCell>
        <mxCell id="obafi1UPasWX9JM71mCs-68" value="id" style="ellipse;whiteSpace=wrap;html=1;align=center;" parent="1" vertex="1">
          <mxGeometry x="1450" y="712.4100000000001" width="70" height="37.59" as="geometry" />
        </mxCell>
        <mxCell id="obafi1UPasWX9JM71mCs-80" value="Es jefe de" style="shape=rhombus;perimeter=rhombusPerimeter;whiteSpace=wrap;html=1;align=center;" parent="1" vertex="1">
          <mxGeometry x="2020.8188235294117" y="770.0044827586206" width="159.17647058823528" height="83.79310344827584" as="geometry" />
        </mxCell>
        <mxCell id="obafi1UPasWX9JM71mCs-81" value="" style="endArrow=none;html=1;rounded=0;exitX=0.5;exitY=1;exitDx=0;exitDy=0;entryX=1;entryY=0.5;entryDx=0;entryDy=0;" parent="1" target="obafi1UPasWX9JM71mCs-80" edge="1">
          <mxGeometry width="50" height="50" relative="1" as="geometry">
            <mxPoint x="2209.64" y="680.86" as="sourcePoint" />
            <mxPoint x="2210" y="820" as="targetPoint" />
            <Array as="points" />
          </mxGeometry>
        </mxCell>
        <mxCell id="obafi1UPasWX9JM71mCs-82" value="" style="endArrow=none;html=1;rounded=0;entryX=0;entryY=0.5;entryDx=0;entryDy=0;" parent="1" target="obafi1UPasWX9JM71mCs-80" edge="1">
          <mxGeometry width="50" height="50" relative="1" as="geometry">
            <mxPoint x="2110" y="680" as="sourcePoint" />
            <mxPoint x="2070" y="792.59" as="targetPoint" />
            <Array as="points" />
          </mxGeometry>
        </mxCell>
        <mxCell id="obafi1UPasWX9JM71mCs-92" value="0,n" style="text;html=1;strokeColor=none;fillColor=none;align=center;verticalAlign=middle;whiteSpace=wrap;rounded=0;" parent="1" vertex="1">
          <mxGeometry x="2160" y="820" width="60" height="30" as="geometry" />
        </mxCell>
        <mxCell id="obafi1UPasWX9JM71mCs-93" value="0,n" style="text;html=1;strokeColor=none;fillColor=none;align=center;verticalAlign=middle;whiteSpace=wrap;rounded=0;" parent="1" vertex="1">
          <mxGeometry x="1990" y="819.48" width="60" height="30" as="geometry" />
        </mxCell>
        <mxCell id="obafi1UPasWX9JM71mCs-94" value="jefe" style="text;html=1;strokeColor=none;fillColor=none;align=center;verticalAlign=middle;whiteSpace=wrap;rounded=0;" parent="1" vertex="1">
          <mxGeometry x="1970" y="800" width="60" height="30" as="geometry" />
        </mxCell>
        <mxCell id="obafi1UPasWX9JM71mCs-95" value="empleado" style="text;html=1;strokeColor=none;fillColor=none;align=center;verticalAlign=middle;whiteSpace=wrap;rounded=0;" parent="1" vertex="1">
          <mxGeometry x="2180" y="800" width="60" height="30" as="geometry" />
        </mxCell>
        <mxCell id="obafi1UPasWX9JM71mCs-96" value="id" style="ellipse;whiteSpace=wrap;html=1;align=center;" parent="1" vertex="1">
          <mxGeometry x="940" y="572.4100000000001" width="70" height="37.59" as="geometry" />
        </mxCell>
        <mxCell id="obafi1UPasWX9JM71mCs-97" value="0,n" style="text;html=1;strokeColor=none;fillColor=none;align=center;verticalAlign=middle;whiteSpace=wrap;rounded=0;" parent="1" vertex="1">
          <mxGeometry x="1130" y="595" width="60" height="30" as="geometry" />
        </mxCell>
        <mxCell id="obafi1UPasWX9JM71mCs-98" value="0,n" style="text;html=1;strokeColor=none;fillColor=none;align=center;verticalAlign=middle;whiteSpace=wrap;rounded=0;" parent="1" vertex="1">
          <mxGeometry x="1050" y="595" width="60" height="30" as="geometry" />
        </mxCell>
        <mxCell id="obafi1UPasWX9JM71mCs-99" value="1,1" style="text;html=1;strokeColor=none;fillColor=none;align=center;verticalAlign=middle;whiteSpace=wrap;rounded=0;" parent="1" vertex="1">
          <mxGeometry x="1050" y="289.83" width="60" height="30" as="geometry" />
        </mxCell>
        <mxCell id="obafi1UPasWX9JM71mCs-100" value="nombre" style="ellipse;whiteSpace=wrap;html=1;align=center;" parent="1" vertex="1">
          <mxGeometry x="1027.24" y="710" width="70" height="37.59" as="geometry" />
        </mxCell>
        <mxCell id="obafi1UPasWX9JM71mCs-101" value="genero" style="ellipse;whiteSpace=wrap;html=1;align=center;" parent="1" vertex="1">
          <mxGeometry x="950" y="694.82" width="70" height="37.59" as="geometry" />
        </mxCell>
        <mxCell id="obafi1UPasWX9JM71mCs-102" value="pegi" style="ellipse;whiteSpace=wrap;html=1;align=center;" parent="1" vertex="1">
          <mxGeometry x="1020" y="550" width="70" height="37.59" as="geometry" />
        </mxCell>
        <mxCell id="obafi1UPasWX9JM71mCs-103" value="Tiene" style="shape=rhombus;perimeter=rhombusPerimeter;whiteSpace=wrap;html=1;align=center;" parent="1" vertex="1">
          <mxGeometry x="680" y="611.031724137931" width="159.17647058823528" height="83.79310344827584" as="geometry" />
        </mxCell>
        <mxCell id="obafi1UPasWX9JM71mCs-104" value="Personajes" style="rounded=1;arcSize=10;whiteSpace=wrap;html=1;align=center;" parent="1" vertex="1">
          <mxGeometry x="399.99529411764706" y="624.1399999999998" width="144.7058823529412" height="55.86206896551724" as="geometry" />
        </mxCell>
        <mxCell id="obafi1UPasWX9JM71mCs-105" value="" style="line;strokeWidth=1;rotatable=0;dashed=0;labelPosition=right;align=left;verticalAlign=middle;spacingTop=0;spacingLeft=6;points=[];portConstraint=eastwest;" parent="1" vertex="1">
          <mxGeometry x="544.7" y="647.93" width="135.3" height="10" as="geometry" />
        </mxCell>
        <mxCell id="obafi1UPasWX9JM71mCs-106" value="" style="line;strokeWidth=1;rotatable=0;dashed=0;labelPosition=right;align=left;verticalAlign=middle;spacingTop=0;spacingLeft=6;points=[];portConstraint=eastwest;" parent="1" vertex="1">
          <mxGeometry x="839.18" y="647.93" width="190.82" height="10" as="geometry" />
        </mxCell>
        <mxCell id="obafi1UPasWX9JM71mCs-107" value="0,n" style="text;html=1;strokeColor=none;fillColor=none;align=center;verticalAlign=middle;whiteSpace=wrap;rounded=0;" parent="1" vertex="1">
          <mxGeometry x="980" y="630" width="60" height="30" as="geometry" />
        </mxCell>
        <mxCell id="obafi1UPasWX9JM71mCs-108" value="0,n" style="text;html=1;strokeColor=none;fillColor=none;align=center;verticalAlign=middle;whiteSpace=wrap;rounded=0;" parent="1" vertex="1">
          <mxGeometry x="530" y="630" width="60" height="30" as="geometry" />
        </mxCell>
        <mxCell id="obafi1UPasWX9JM71mCs-109" value="fecha salida" style="ellipse;whiteSpace=wrap;html=1;align=center;" parent="1" vertex="1">
          <mxGeometry x="1120" y="550" width="70" height="37.59" as="geometry" />
        </mxCell>
        <mxCell id="obafi1UPasWX9JM71mCs-110" value="Multijugador" style="ellipse;whiteSpace=wrap;html=1;align=center;" parent="1" vertex="1">
          <mxGeometry x="1140" y="710" width="70" height="37.59" as="geometry" />
        </mxCell>
        <mxCell id="obafi1UPasWX9JM71mCs-111" value="nombre" style="ellipse;whiteSpace=wrap;html=1;align=center;" parent="1" vertex="1">
          <mxGeometry x="390" y="536.2" width="70" height="37.59" as="geometry" />
        </mxCell>
        <mxCell id="obafi1UPasWX9JM71mCs-113" value="protagonista" style="ellipse;whiteSpace=wrap;html=1;align=center;" parent="1" vertex="1">
          <mxGeometry x="470" y="720" width="70" height="37.59" as="geometry" />
        </mxCell>
        <mxCell id="obafi1UPasWX9JM71mCs-114" value="edad" style="ellipse;whiteSpace=wrap;html=1;align=center;" parent="1" vertex="1">
          <mxGeometry x="320" y="694.82" width="70" height="37.59" as="geometry" />
        </mxCell>
        <mxCell id="obafi1UPasWX9JM71mCs-115" value="vivo" style="ellipse;whiteSpace=wrap;html=1;align=center;" parent="1" vertex="1">
          <mxGeometry x="520" y="550" width="70" height="37.59" as="geometry" />
        </mxCell>
        <mxCell id="obafi1UPasWX9JM71mCs-116" value="Banda Sonora" style="ellipse;whiteSpace=wrap;html=1;align=center;" parent="1" vertex="1">
          <mxGeometry x="880" y="660" width="70" height="37.59" as="geometry" />
        </mxCell>
        <mxCell id="obafi1UPasWX9JM71mCs-119" value="Cancion" style="rounded=1;arcSize=10;whiteSpace=wrap;html=1;align=center;" parent="1" vertex="1">
          <mxGeometry x="1029.995294117647" y="992.1379310344826" width="144.7058823529412" height="55.86206896551724" as="geometry" />
        </mxCell>
        <mxCell id="obafi1UPasWX9JM71mCs-125" value="id" style="ellipse;whiteSpace=wrap;html=1;align=center;" parent="1" vertex="1">
          <mxGeometry x="1020" y="908" width="70" height="37.59" as="geometry" />
        </mxCell>
        <mxCell id="obafi1UPasWX9JM71mCs-126" value="nombre" style="ellipse;whiteSpace=wrap;html=1;align=center;" parent="1" vertex="1">
          <mxGeometry x="1110" y="908" width="70" height="37.59" as="geometry" />
        </mxCell>
        <mxCell id="obafi1UPasWX9JM71mCs-127" value="grupo" style="ellipse;whiteSpace=wrap;html=1;align=center;" parent="1" vertex="1">
          <mxGeometry x="1200" y="918" width="70" height="37.59" as="geometry" />
        </mxCell>
        <mxCell id="obafi1UPasWX9JM71mCs-128" value="fecha salida" style="ellipse;whiteSpace=wrap;html=1;align=center;" parent="1" vertex="1">
          <mxGeometry x="1240" y="992.14" width="70" height="37.59" as="geometry" />
        </mxCell>
        <mxCell id="obafi1UPasWX9JM71mCs-129" value="duracion" style="ellipse;whiteSpace=wrap;html=1;align=center;" parent="1" vertex="1">
          <mxGeometry x="1190" y="1061.97" width="70" height="37.59" as="geometry" />
        </mxCell>
        <mxCell id="obafi1UPasWX9JM71mCs-133" value="" style="endArrow=none;html=1;rounded=0;exitX=1;exitY=0.25;exitDx=0;exitDy=0;" parent="1" source="obafi1UPasWX9JM71mCs-119" edge="1">
          <mxGeometry width="50" height="50" relative="1" as="geometry">
            <mxPoint x="1170" y="1002.14" as="sourcePoint" />
            <mxPoint x="1220" y="952.14" as="targetPoint" />
          </mxGeometry>
        </mxCell>
        <mxCell id="obafi1UPasWX9JM71mCs-241" value="" style="endArrow=none;html=1;rounded=0;exitX=1;exitY=0.25;exitDx=0;exitDy=0;entryX=-0.037;entryY=0.655;entryDx=0;entryDy=0;entryPerimeter=0;" parent="1" target="obafi1UPasWX9JM71mCs-128" edge="1">
          <mxGeometry width="50" height="50" relative="1" as="geometry">
            <mxPoint x="1174.7" y="1037" as="sourcePoint" />
            <mxPoint x="1219.7" y="983.14" as="targetPoint" />
          </mxGeometry>
        </mxCell>
        <mxCell id="obafi1UPasWX9JM71mCs-242" value="" style="endArrow=none;html=1;rounded=0;exitX=1;exitY=0.25;exitDx=0;exitDy=0;entryX=0.5;entryY=1;entryDx=0;entryDy=0;" parent="1" target="obafi1UPasWX9JM71mCs-126" edge="1">
          <mxGeometry width="50" height="50" relative="1" as="geometry">
            <mxPoint x="1129.7" y="992.14" as="sourcePoint" />
            <mxPoint x="1174.7" y="938.28" as="targetPoint" />
          </mxGeometry>
        </mxCell>
        <mxCell id="obafi1UPasWX9JM71mCs-243" value="" style="endArrow=none;html=1;rounded=0;exitX=0.222;exitY=-0.002;exitDx=0;exitDy=0;exitPerimeter=0;" parent="1" source="obafi1UPasWX9JM71mCs-119" target="obafi1UPasWX9JM71mCs-125" edge="1">
          <mxGeometry width="50" height="50" relative="1" as="geometry">
            <mxPoint x="1020" y="992.14" as="sourcePoint" />
            <mxPoint x="1065" y="938.28" as="targetPoint" />
          </mxGeometry>
        </mxCell>
        <mxCell id="obafi1UPasWX9JM71mCs-244" value="" style="endArrow=none;html=1;rounded=0;exitX=0.969;exitY=0.978;exitDx=0;exitDy=0;exitPerimeter=0;entryX=0.011;entryY=0.267;entryDx=0;entryDy=0;entryPerimeter=0;" parent="1" source="obafi1UPasWX9JM71mCs-119" target="obafi1UPasWX9JM71mCs-129" edge="1">
          <mxGeometry width="50" height="50" relative="1" as="geometry">
            <mxPoint x="1205" y="1036" as="sourcePoint" />
            <mxPoint x="1250" y="982.14" as="targetPoint" />
          </mxGeometry>
        </mxCell>
        <mxCell id="obafi1UPasWX9JM71mCs-245" value="" style="endArrow=none;html=1;rounded=0;exitX=0.787;exitY=0.007;exitDx=0;exitDy=0;entryX=0.29;entryY=0.968;entryDx=0;entryDy=0;entryPerimeter=0;exitPerimeter=0;" parent="1" source="obafi1UPasWX9JM71mCs-104" target="obafi1UPasWX9JM71mCs-115" edge="1">
          <mxGeometry width="50" height="50" relative="1" as="geometry">
            <mxPoint x="495" y="640" as="sourcePoint" />
            <mxPoint x="540" y="580" as="targetPoint" />
          </mxGeometry>
        </mxCell>
        <mxCell id="obafi1UPasWX9JM71mCs-246" value="" style="endArrow=none;html=1;rounded=0;exitX=0.956;exitY=0.32;exitDx=0;exitDy=0;entryX=0.127;entryY=1.012;entryDx=0;entryDy=0;entryPerimeter=0;exitPerimeter=0;" parent="1" source="obafi1UPasWX9JM71mCs-114" target="obafi1UPasWX9JM71mCs-104" edge="1">
          <mxGeometry width="50" height="50" relative="1" as="geometry">
            <mxPoint x="390" y="710" as="sourcePoint" />
            <mxPoint x="418" y="674" as="targetPoint" />
          </mxGeometry>
        </mxCell>
        <mxCell id="obafi1UPasWX9JM71mCs-247" value="" style="endArrow=none;html=1;rounded=0;exitX=0.403;exitY=-0.003;exitDx=0;exitDy=0;entryX=0.46;entryY=1.018;entryDx=0;entryDy=0;entryPerimeter=0;exitPerimeter=0;" parent="1" source="obafi1UPasWX9JM71mCs-104" target="obafi1UPasWX9JM71mCs-111" edge="1">
          <mxGeometry width="50" height="50" relative="1" as="geometry">
            <mxPoint x="522" y="632" as="sourcePoint" />
            <mxPoint x="550" y="596" as="targetPoint" />
          </mxGeometry>
        </mxCell>
        <mxCell id="obafi1UPasWX9JM71mCs-248" value="" style="endArrow=none;html=1;rounded=0;exitX=0;exitY=0.25;exitDx=0;exitDy=0;entryX=0.909;entryY=0.771;entryDx=0;entryDy=0;entryPerimeter=0;" parent="1" source="obafi1UPasWX9JM71mCs-104" target="obafi1UPasWX9JM71mCs-112" edge="1">
          <mxGeometry width="50" height="50" relative="1" as="geometry">
            <mxPoint x="532" y="642" as="sourcePoint" />
            <mxPoint x="560" y="606" as="targetPoint" />
          </mxGeometry>
        </mxCell>
        <mxCell id="obafi1UPasWX9JM71mCs-249" value="" style="endArrow=none;html=1;rounded=0;exitX=0.775;exitY=0.995;exitDx=0;exitDy=0;entryX=0.596;entryY=-0.046;entryDx=0;entryDy=0;entryPerimeter=0;exitPerimeter=0;" parent="1" source="obafi1UPasWX9JM71mCs-104" target="obafi1UPasWX9JM71mCs-113" edge="1">
          <mxGeometry width="50" height="50" relative="1" as="geometry">
            <mxPoint x="542" y="652" as="sourcePoint" />
            <mxPoint x="570" y="616" as="targetPoint" />
          </mxGeometry>
        </mxCell>
        <mxCell id="obafi1UPasWX9JM71mCs-250" value="" style="endArrow=none;html=1;rounded=0;exitX=0.793;exitY=-0.018;exitDx=0;exitDy=0;entryX=0.836;entryY=0.857;entryDx=0;entryDy=0;entryPerimeter=0;exitPerimeter=0;" parent="1" source="obafi1UPasWX9JM71mCs-107" target="obafi1UPasWX9JM71mCs-96" edge="1">
          <mxGeometry width="50" height="50" relative="1" as="geometry">
            <mxPoint x="971" y="646" as="sourcePoint" />
            <mxPoint x="999" y="610" as="targetPoint" />
          </mxGeometry>
        </mxCell>
        <mxCell id="obafi1UPasWX9JM71mCs-251" value="" style="endArrow=none;html=1;rounded=0;exitX=0.142;exitY=1.009;exitDx=0;exitDy=0;entryX=0.433;entryY=1.007;entryDx=0;entryDy=0;entryPerimeter=0;exitPerimeter=0;" parent="1" source="obafi1UPasWX9JM71mCs-98" target="obafi1UPasWX9JM71mCs-102" edge="1">
          <mxGeometry width="50" height="50" relative="1" as="geometry">
            <mxPoint x="1076.74" y="614" as="sourcePoint" />
            <mxPoint x="1047.74" y="590" as="targetPoint" />
          </mxGeometry>
        </mxCell>
        <mxCell id="obafi1UPasWX9JM71mCs-253" value="" style="endArrow=none;html=1;rounded=0;exitX=-0.022;exitY=0.971;exitDx=0;exitDy=0;entryX=0.295;entryY=0.947;entryDx=0;entryDy=0;entryPerimeter=0;exitPerimeter=0;" parent="1" source="obafi1UPasWX9JM71mCs-97" target="obafi1UPasWX9JM71mCs-109" edge="1">
          <mxGeometry width="50" height="50" relative="1" as="geometry">
            <mxPoint x="1140" y="619" as="sourcePoint" />
            <mxPoint x="1111" y="595" as="targetPoint" />
          </mxGeometry>
        </mxCell>
        <mxCell id="obafi1UPasWX9JM71mCs-254" value="" style="endArrow=none;html=1;rounded=0;exitX=0.272;exitY=0.076;exitDx=0;exitDy=0;entryX=0.973;entryY=-0.008;entryDx=0;entryDy=0;entryPerimeter=0;exitPerimeter=0;" parent="1" source="obafi1UPasWX9JM71mCs-110" target="obafi1UPasWX9JM71mCs-42" edge="1">
          <mxGeometry width="50" height="50" relative="1" as="geometry">
            <mxPoint x="1169.5" y="718.82" as="sourcePoint" />
            <mxPoint x="1140.5" y="694.82" as="targetPoint" />
          </mxGeometry>
        </mxCell>
        <mxCell id="obafi1UPasWX9JM71mCs-256" value="" style="endArrow=none;html=1;rounded=0;exitX=0.445;exitY=0.003;exitDx=0;exitDy=0;entryX=0.183;entryY=1.018;entryDx=0;entryDy=0;entryPerimeter=0;exitPerimeter=0;" parent="1" source="obafi1UPasWX9JM71mCs-100" target="obafi1UPasWX9JM71mCs-3" edge="1">
          <mxGeometry width="50" height="50" relative="1" as="geometry">
            <mxPoint x="1068" y="669" as="sourcePoint" />
            <mxPoint x="1039" y="645" as="targetPoint" />
          </mxGeometry>
        </mxCell>
        <mxCell id="obafi1UPasWX9JM71mCs-257" value="" style="endArrow=none;html=1;rounded=0;exitX=0.892;exitY=0.16;exitDx=0;exitDy=0;exitPerimeter=0;" parent="1" source="obafi1UPasWX9JM71mCs-101" edge="1">
          <mxGeometry width="50" height="50" relative="1" as="geometry">
            <mxPoint x="1078" y="679" as="sourcePoint" />
            <mxPoint x="1030" y="680" as="targetPoint" />
          </mxGeometry>
        </mxCell>
        <mxCell id="obafi1UPasWX9JM71mCs-258" value="" style="endArrow=none;html=1;rounded=0;exitX=0.003;exitY=0.329;exitDx=0;exitDy=0;entryX=0.92;entryY=0.699;entryDx=0;entryDy=0;entryPerimeter=0;exitPerimeter=0;" parent="1" source="obafi1UPasWX9JM71mCs-4" target="obafi1UPasWX9JM71mCs-66" edge="1">
          <mxGeometry width="50" height="50" relative="1" as="geometry">
            <mxPoint x="1039" y="257.97" as="sourcePoint" />
            <mxPoint x="1010" y="233.97000000000003" as="targetPoint" />
          </mxGeometry>
        </mxCell>
        <mxCell id="obafi1UPasWX9JM71mCs-260" value="" style="endArrow=none;html=1;rounded=0;exitX=0.149;exitY=0.012;exitDx=0;exitDy=0;entryX=0.773;entryY=0.931;entryDx=0;entryDy=0;entryPerimeter=0;exitPerimeter=0;" parent="1" source="obafi1UPasWX9JM71mCs-4" target="obafi1UPasWX9JM71mCs-62" edge="1">
          <mxGeometry width="50" height="50" relative="1" as="geometry">
            <mxPoint x="1054" y="220" as="sourcePoint" />
            <mxPoint x="1010" y="191" as="targetPoint" />
          </mxGeometry>
        </mxCell>
        <mxCell id="obafi1UPasWX9JM71mCs-261" value="" style="endArrow=none;html=1;rounded=0;exitX=0.449;exitY=0.026;exitDx=0;exitDy=0;entryX=0.392;entryY=0.987;entryDx=0;entryDy=0;entryPerimeter=0;exitPerimeter=0;" parent="1" source="obafi1UPasWX9JM71mCs-4" target="obafi1UPasWX9JM71mCs-63" edge="1">
          <mxGeometry width="50" height="50" relative="1" as="geometry">
            <mxPoint x="1038" y="262" as="sourcePoint" />
            <mxPoint x="994" y="233" as="targetPoint" />
          </mxGeometry>
        </mxCell>
        <mxCell id="obafi1UPasWX9JM71mCs-262" value="" style="endArrow=none;html=1;rounded=0;exitX=0.802;exitY=-0.003;exitDx=0;exitDy=0;exitPerimeter=0;entryX=0.436;entryY=0.972;entryDx=0;entryDy=0;entryPerimeter=0;" parent="1" source="obafi1UPasWX9JM71mCs-4" target="obafi1UPasWX9JM71mCs-64" edge="1">
          <mxGeometry width="50" height="50" relative="1" as="geometry">
            <mxPoint x="1048" y="272" as="sourcePoint" />
            <mxPoint x="1170" y="180" as="targetPoint" />
          </mxGeometry>
        </mxCell>
        <mxCell id="obafi1UPasWX9JM71mCs-263" value="" style="endArrow=none;html=1;rounded=0;exitX=0;exitY=0.75;exitDx=0;exitDy=0;entryX=1;entryY=0.5;entryDx=0;entryDy=0;" parent="1" source="obafi1UPasWX9JM71mCs-3" target="obafi1UPasWX9JM71mCs-116" edge="1">
          <mxGeometry width="50" height="50" relative="1" as="geometry">
            <mxPoint x="1026.9458823529408" y="998.71724137931" as="sourcePoint" />
            <mxPoint x="986" y="982.73" as="targetPoint" />
          </mxGeometry>
        </mxCell>
        <mxCell id="obafi1UPasWX9JM71mCs-266" value="" style="endArrow=none;html=1;rounded=0;entryX=0.074;entryY=0.738;entryDx=0;entryDy=0;entryPerimeter=0;" parent="1" source="obafi1UPasWX9JM71mCs-85" target="obafi1UPasWX9JM71mCs-51" edge="1">
          <mxGeometry width="50" height="50" relative="1" as="geometry">
            <mxPoint x="2150" y="723.86" as="sourcePoint" />
            <mxPoint x="2195" y="670" as="targetPoint" />
          </mxGeometry>
        </mxCell>
        <mxCell id="obafi1UPasWX9JM71mCs-267" value="" style="endArrow=none;html=1;rounded=0;exitX=0.807;exitY=0.047;exitDx=0;exitDy=0;exitPerimeter=0;" parent="1" source="obafi1UPasWX9JM71mCs-91" target="obafi1UPasWX9JM71mCs-55" edge="1">
          <mxGeometry width="50" height="50" relative="1" as="geometry">
            <mxPoint x="2167" y="616.79" as="sourcePoint" />
            <mxPoint x="2213" y="573.79" as="targetPoint" />
          </mxGeometry>
        </mxCell>
        <mxCell id="obafi1UPasWX9JM71mCs-268" value="" style="endArrow=none;html=1;rounded=0;entryX=0.553;entryY=1.013;entryDx=0;entryDy=0;entryPerimeter=0;exitX=0.22;exitY=0.032;exitDx=0;exitDy=0;exitPerimeter=0;" parent="1" source="obafi1UPasWX9JM71mCs-85" target="obafi1UPasWX9JM71mCs-48" edge="1">
          <mxGeometry width="50" height="50" relative="1" as="geometry">
            <mxPoint x="2218" y="635" as="sourcePoint" />
            <mxPoint x="2264" y="592" as="targetPoint" />
          </mxGeometry>
        </mxCell>
        <mxCell id="obafi1UPasWX9JM71mCs-269" value="" style="endArrow=none;html=1;rounded=0;entryX=0.233;entryY=0.867;entryDx=0;entryDy=0;entryPerimeter=0;exitX=0.447;exitY=0.039;exitDx=0;exitDy=0;exitPerimeter=0;" parent="1" source="obafi1UPasWX9JM71mCs-85" target="obafi1UPasWX9JM71mCs-49" edge="1">
          <mxGeometry width="50" height="50" relative="1" as="geometry">
            <mxPoint x="2228" y="645" as="sourcePoint" />
            <mxPoint x="2274" y="602" as="targetPoint" />
          </mxGeometry>
        </mxCell>
        <mxCell id="obafi1UPasWX9JM71mCs-270" value="" style="endArrow=none;html=1;rounded=0;entryX=0.007;entryY=0.667;entryDx=0;entryDy=0;entryPerimeter=0;exitX=1.008;exitY=0.412;exitDx=0;exitDy=0;exitPerimeter=0;" parent="1" source="obafi1UPasWX9JM71mCs-85" target="obafi1UPasWX9JM71mCs-52" edge="1">
          <mxGeometry width="50" height="50" relative="1" as="geometry">
            <mxPoint x="2238" y="655" as="sourcePoint" />
            <mxPoint x="2284" y="612" as="targetPoint" />
          </mxGeometry>
        </mxCell>
        <mxCell id="obafi1UPasWX9JM71mCs-271" value="" style="endArrow=none;html=1;rounded=0;entryX=0.004;entryY=0.401;entryDx=0;entryDy=0;entryPerimeter=0;exitX=1;exitY=0.806;exitDx=0;exitDy=0;exitPerimeter=0;" parent="1" source="obafi1UPasWX9JM71mCs-85" target="obafi1UPasWX9JM71mCs-53" edge="1">
          <mxGeometry width="50" height="50" relative="1" as="geometry">
            <mxPoint x="2248" y="665" as="sourcePoint" />
            <mxPoint x="2294" y="622" as="targetPoint" />
          </mxGeometry>
        </mxCell>
        <mxCell id="obafi1UPasWX9JM71mCs-272" value="" style="endArrow=none;html=1;rounded=0;entryX=0;entryY=0;entryDx=0;entryDy=0;exitX=0.965;exitY=1;exitDx=0;exitDy=0;exitPerimeter=0;" parent="1" source="obafi1UPasWX9JM71mCs-85" target="obafi1UPasWX9JM71mCs-54" edge="1">
          <mxGeometry width="50" height="50" relative="1" as="geometry">
            <mxPoint x="2258" y="675" as="sourcePoint" />
            <mxPoint x="2304" y="632" as="targetPoint" />
          </mxGeometry>
        </mxCell>
        <mxCell id="obafi1UPasWX9JM71mCs-273" value="" style="endArrow=none;html=1;rounded=0;entryX=0.286;entryY=0.985;entryDx=0;entryDy=0;entryPerimeter=0;exitX=0.703;exitY=0.053;exitDx=0;exitDy=0;exitPerimeter=0;" parent="1" source="obafi1UPasWX9JM71mCs-68" target="obafi1UPasWX9JM71mCs-84" edge="1">
          <mxGeometry width="50" height="50" relative="1" as="geometry">
            <mxPoint x="1480" y="747.59" as="sourcePoint" />
            <mxPoint x="1526" y="704.59" as="targetPoint" />
          </mxGeometry>
        </mxCell>
        <mxCell id="obafi1UPasWX9JM71mCs-274" value="" style="endArrow=none;html=1;rounded=0;entryX=0.8;entryY=1.006;entryDx=0;entryDy=0;entryPerimeter=0;exitX=0.2;exitY=0.043;exitDx=0;exitDy=0;exitPerimeter=0;" parent="1" source="obafi1UPasWX9JM71mCs-67" target="obafi1UPasWX9JM71mCs-84" edge="1">
          <mxGeometry width="50" height="50" relative="1" as="geometry">
            <mxPoint x="1480" y="747.59" as="sourcePoint" />
            <mxPoint x="1526" y="704.59" as="targetPoint" />
          </mxGeometry>
        </mxCell>
        <mxCell id="obafi1UPasWX9JM71mCs-275" value="" style="endArrow=none;html=1;rounded=0;entryX=0.5;entryY=1;entryDx=0;entryDy=0;exitX=0.5;exitY=0;exitDx=0;exitDy=0;" parent="1" source="9NXkBEMpyTL9eg-3DKrt-2" target="obafi1UPasWX9JM71mCs-26" edge="1">
          <mxGeometry width="50" height="50" relative="1" as="geometry">
            <mxPoint x="1316.65" y="732.4100000000001" as="sourcePoint" />
            <mxPoint x="1536" y="714.59" as="targetPoint" />
          </mxGeometry>
        </mxCell>
        <mxCell id="obafi1UPasWX9JM71mCs-276" value="" style="endArrow=none;html=1;rounded=0;entryX=1;entryY=0.5;entryDx=0;entryDy=0;exitX=0;exitY=0.5;exitDx=0;exitDy=0;" parent="1" source="9NXkBEMpyTL9eg-3DKrt-1" target="obafi1UPasWX9JM71mCs-13" edge="1">
          <mxGeometry width="50" height="50" relative="1" as="geometry">
            <mxPoint x="1689.9999999999854" y="457.41499999999996" as="sourcePoint" />
            <mxPoint x="1546" y="724.59" as="targetPoint" />
          </mxGeometry>
        </mxCell>
        <mxCell id="obafi1UPasWX9JM71mCs-277" value="" style="endArrow=none;html=1;rounded=0;entryX=1;entryY=0.5;entryDx=0;entryDy=0;exitX=0;exitY=0.5;exitDx=0;exitDy=0;" parent="1" source="obafi1UPasWX9JM71mCs-61" target="obafi1UPasWX9JM71mCs-5" edge="1">
          <mxGeometry width="50" height="50" relative="1" as="geometry">
            <mxPoint x="1510" y="777.59" as="sourcePoint" />
            <mxPoint x="1556" y="734.59" as="targetPoint" />
          </mxGeometry>
        </mxCell>
        <mxCell id="obafi1UPasWX9JM71mCs-278" value="" style="endArrow=none;html=1;rounded=0;exitX=0.59;exitY=1.006;exitDx=0;exitDy=0;exitPerimeter=0;" parent="1" source="obafi1UPasWX9JM71mCs-58" target="obafi1UPasWX9JM71mCs-5" edge="1">
          <mxGeometry width="50" height="50" relative="1" as="geometry">
            <mxPoint x="1520" y="787.59" as="sourcePoint" />
            <mxPoint x="1566" y="744.59" as="targetPoint" />
          </mxGeometry>
        </mxCell>
        <mxCell id="obafi1UPasWX9JM71mCs-279" value="" style="endArrow=none;html=1;rounded=0;" parent="1" source="obafi1UPasWX9JM71mCs-59" target="obafi1UPasWX9JM71mCs-5" edge="1">
          <mxGeometry width="50" height="50" relative="1" as="geometry">
            <mxPoint x="1530" y="797.59" as="sourcePoint" />
            <mxPoint x="1576" y="754.59" as="targetPoint" />
          </mxGeometry>
        </mxCell>
        <mxCell id="obafi1UPasWX9JM71mCs-280" value="" style="endArrow=none;html=1;rounded=0;" parent="1" source="obafi1UPasWX9JM71mCs-60" target="obafi1UPasWX9JM71mCs-5" edge="1">
          <mxGeometry width="50" height="50" relative="1" as="geometry">
            <mxPoint x="1540" y="807.59" as="sourcePoint" />
            <mxPoint x="1586" y="764.59" as="targetPoint" />
          </mxGeometry>
        </mxCell>
        <mxCell id="obafi1UPasWX9JM71mCs-1" value="Tienda" style="rounded=1;arcSize=10;whiteSpace=wrap;html=1;align=center;" parent="1" vertex="1">
          <mxGeometry x="1468.5882352941176" y="624.9999999999999" width="144.7058823529412" height="55.862068965517246" as="geometry" />
        </mxCell>
        <mxCell id="obafi1UPasWX9JM71mCs-2" value="Trabajador" style="rounded=1;arcSize=10;whiteSpace=wrap;html=1;align=center;" parent="1" vertex="1">
          <mxGeometry x="2105.2941176470586" y="624.9999999999999" width="144.7058823529412" height="55.862068965517246" as="geometry" />
        </mxCell>
        <mxCell id="obafi1UPasWX9JM71mCs-8" value="Tiene" style="shape=rhombus;perimeter=rhombusPerimeter;whiteSpace=wrap;html=1;align=center;" parent="1" vertex="1">
          <mxGeometry x="1786.941176470588" y="611.0344827586206" width="159.17647058823528" height="83.79310344827584" as="geometry" />
        </mxCell>
        <mxCell id="obafi1UPasWX9JM71mCs-9" value="" style="endArrow=none;html=1;rounded=0;exitX=1;exitY=0.5;exitDx=0;exitDy=0;entryX=0;entryY=0.5;entryDx=0;entryDy=0;" parent="1" source="obafi1UPasWX9JM71mCs-1" target="obafi1UPasWX9JM71mCs-8" edge="1">
          <mxGeometry width="50" height="50" relative="1" as="geometry">
            <mxPoint x="1772.470588235294" y="694.8275862068964" as="sourcePoint" />
            <mxPoint x="1844.8235294117646" y="624.9999999999999" as="targetPoint" />
          </mxGeometry>
        </mxCell>
        <mxCell id="obafi1UPasWX9JM71mCs-10" value="" style="endArrow=none;html=1;rounded=0;entryX=0;entryY=0.5;entryDx=0;entryDy=0;" parent="1" edge="1">
          <mxGeometry width="50" height="50" relative="1" as="geometry">
            <mxPoint x="1946.1176470588234" y="652.9310344827585" as="sourcePoint" />
            <mxPoint x="2105.2941176470586" y="652.4562068965516" as="targetPoint" />
          </mxGeometry>
        </mxCell>
        <mxCell id="obafi1UPasWX9JM71mCs-40" value="0,n" style="text;html=1;strokeColor=none;fillColor=none;align=center;verticalAlign=middle;whiteSpace=wrap;rounded=0;" parent="1" vertex="1">
          <mxGeometry x="1530" y="595" width="60" height="30" as="geometry" />
        </mxCell>
        <mxCell id="obafi1UPasWX9JM71mCs-46" value="1,1" style="text;html=1;strokeColor=none;fillColor=none;align=center;verticalAlign=middle;whiteSpace=wrap;rounded=0;" parent="1" vertex="1">
          <mxGeometry x="1600" y="625" width="60" height="30" as="geometry" />
        </mxCell>
        <mxCell id="obafi1UPasWX9JM71mCs-47" value="0,n" style="text;html=1;strokeColor=none;fillColor=none;align=center;verticalAlign=middle;whiteSpace=wrap;rounded=0;" parent="1" vertex="1">
          <mxGeometry x="2060" y="625" width="60" height="30" as="geometry" />
        </mxCell>
        <mxCell id="obafi1UPasWX9JM71mCs-83" value="" style="group" parent="1" vertex="1" connectable="0">
          <mxGeometry x="1468.5882352941176" y="611.0344827586206" width="781.4117647058823" height="83.79310344827584" as="geometry" />
        </mxCell>
        <mxCell id="obafi1UPasWX9JM71mCs-84" value="Tienda" style="rounded=1;arcSize=10;whiteSpace=wrap;html=1;align=center;" parent="obafi1UPasWX9JM71mCs-83" vertex="1">
          <mxGeometry y="13.965517241379311" width="144.7058823529412" height="55.862068965517246" as="geometry" />
        </mxCell>
        <mxCell id="obafi1UPasWX9JM71mCs-85" value="Trabajador" style="rounded=1;arcSize=10;whiteSpace=wrap;html=1;align=center;" parent="obafi1UPasWX9JM71mCs-83" vertex="1">
          <mxGeometry x="636.7058823529411" y="13.965517241379311" width="144.7058823529412" height="55.862068965517246" as="geometry" />
        </mxCell>
        <mxCell id="obafi1UPasWX9JM71mCs-86" value="Trabaja en" style="shape=rhombus;perimeter=rhombusPerimeter;whiteSpace=wrap;html=1;align=center;" parent="obafi1UPasWX9JM71mCs-83" vertex="1">
          <mxGeometry x="318.35294117647055" width="159.17647058823528" height="83.79310344827584" as="geometry" />
        </mxCell>
        <mxCell id="obafi1UPasWX9JM71mCs-87" value="" style="endArrow=none;html=1;rounded=0;exitX=1;exitY=0.5;exitDx=0;exitDy=0;entryX=0;entryY=0.5;entryDx=0;entryDy=0;" parent="obafi1UPasWX9JM71mCs-83" source="obafi1UPasWX9JM71mCs-84" target="obafi1UPasWX9JM71mCs-86" edge="1">
          <mxGeometry width="50" height="50" relative="1" as="geometry">
            <mxPoint x="303.8823529411764" y="83.79310344827584" as="sourcePoint" />
            <mxPoint x="376.2352941176471" y="13.965517241379311" as="targetPoint" />
          </mxGeometry>
        </mxCell>
        <mxCell id="obafi1UPasWX9JM71mCs-88" value="" style="endArrow=none;html=1;rounded=0;entryX=0;entryY=0.5;entryDx=0;entryDy=0;" parent="obafi1UPasWX9JM71mCs-83" edge="1">
          <mxGeometry width="50" height="50" relative="1" as="geometry">
            <mxPoint x="477.5294117647058" y="41.89655172413792" as="sourcePoint" />
            <mxPoint x="636.7058823529411" y="41.42172413793108" as="targetPoint" />
          </mxGeometry>
        </mxCell>
        <mxCell id="obafi1UPasWX9JM71mCs-89" value="0,n" style="text;html=1;strokeColor=none;fillColor=none;align=center;verticalAlign=middle;whiteSpace=wrap;rounded=0;" parent="obafi1UPasWX9JM71mCs-83" vertex="1">
          <mxGeometry x="61.41176470588243" y="-16.034482758620584" width="60" height="30" as="geometry" />
        </mxCell>
        <mxCell id="obafi1UPasWX9JM71mCs-91" value="0,n" style="text;html=1;strokeColor=none;fillColor=none;align=center;verticalAlign=middle;whiteSpace=wrap;rounded=0;" parent="obafi1UPasWX9JM71mCs-83" vertex="1">
          <mxGeometry x="591.4117647058824" y="13.965517241379416" width="60" height="30" as="geometry" />
        </mxCell>
        <mxCell id="9NXkBEMpyTL9eg-3DKrt-1" value="Trabajador" style="rounded=1;arcSize=10;whiteSpace=wrap;html=1;align=center;" parent="1" vertex="1">
          <mxGeometry x="1730.0041176470586" y="429.4799999999999" width="144.7058823529412" height="55.862068965517246" as="geometry" />
        </mxCell>
        <mxCell id="9NXkBEMpyTL9eg-3DKrt-2" value="Trabajador" style="rounded=1;arcSize=10;whiteSpace=wrap;html=1;align=center;" parent="1" vertex="1">
          <mxGeometry x="1244.2941176470586" y="764.1399999999999" width="144.7058823529412" height="55.862068965517246" as="geometry" />
        </mxCell>
        <mxCell id="9NXkBEMpyTL9eg-3DKrt-5" value="0,n" style="text;html=1;strokeColor=none;fillColor=none;align=center;verticalAlign=middle;whiteSpace=wrap;rounded=0;" parent="1" vertex="1">
          <mxGeometry x="1680" y="429.48" width="60" height="30" as="geometry" />
        </mxCell>
        <mxCell id="9NXkBEMpyTL9eg-3DKrt-6" value="0,n" style="text;html=1;strokeColor=none;fillColor=none;align=center;verticalAlign=middle;whiteSpace=wrap;rounded=0;" parent="1" vertex="1">
          <mxGeometry x="1310" y="740" width="60" height="30" as="geometry" />
        </mxCell>
        <mxCell id="Ax92lxkuSHc5tBTqS9Pg-1" value="&lt;u&gt;Fecha&lt;/u&gt;" style="ellipse;whiteSpace=wrap;html=1;align=center;" vertex="1" parent="1">
          <mxGeometry x="1610" y="363.96" width="70" height="37.59" as="geometry" />
        </mxCell>
        <mxCell id="Ax92lxkuSHc5tBTqS9Pg-2" value="" style="endArrow=none;html=1;rounded=0;entryX=1;entryY=0;entryDx=0;entryDy=0;exitX=0.04;exitY=0.719;exitDx=0;exitDy=0;exitPerimeter=0;" edge="1" parent="1" source="Ax92lxkuSHc5tBTqS9Pg-1" target="obafi1UPasWX9JM71mCs-13">
          <mxGeometry width="50" height="50" relative="1" as="geometry">
            <mxPoint x="1660" y="262" as="sourcePoint" />
            <mxPoint x="1613" y="262" as="targetPoint" />
          </mxGeometry>
        </mxCell>
        <mxCell id="Ax92lxkuSHc5tBTqS9Pg-3" value="&lt;u&gt;Fecha&lt;/u&gt;" style="ellipse;whiteSpace=wrap;html=1;align=center;" vertex="1" parent="1">
          <mxGeometry x="1360" y="540" width="70" height="37.59" as="geometry" />
        </mxCell>
        <mxCell id="Ax92lxkuSHc5tBTqS9Pg-4" value="" style="endArrow=none;html=1;rounded=0;entryX=0.25;entryY=0.919;entryDx=0;entryDy=0;exitX=1;exitY=0;exitDx=0;exitDy=0;entryPerimeter=0;" edge="1" parent="1" source="obafi1UPasWX9JM71mCs-26" target="Ax92lxkuSHc5tBTqS9Pg-3">
          <mxGeometry width="50" height="50" relative="1" as="geometry">
            <mxPoint x="1613" y="391" as="sourcePoint" />
            <mxPoint x="1581" y="436" as="targetPoint" />
          </mxGeometry>
        </mxCell>
      </root>
    </mxGraphModel>
  </diagram>
</mxfile>
